<?xml version="1.0" encoding="UTF-8" standalone="no"?>
<svg
   xmlns:dc="http://purl.org/dc/elements/1.1/"
   xmlns:cc="http://creativecommons.org/ns#"
   xmlns:rdf="http://www.w3.org/1999/02/22-rdf-syntax-ns#"
   xmlns:svg="http://www.w3.org/2000/svg"
   xmlns="http://www.w3.org/2000/svg"
   xmlns:sodipodi="http://sodipodi.sourceforge.net/DTD/sodipodi-0.dtd"
   xmlns:inkscape="http://www.inkscape.org/namespaces/inkscape"
   width="200mm"
   height="200mm"
   viewBox="0 0 200 200"
   version="1.1"
   id="svg8"
   inkscape:version="1.0.1 (3bc2e813f5, 2020-09-07)"
   sodipodi:docname="beer.svg">
  <defs
     id="defs2" />
  <sodipodi:namedview
     id="base"
     pagecolor="#ffffff"
     bordercolor="#666666"
     borderopacity="1.0"
     inkscape:pageopacity="0.0"
     inkscape:pageshadow="2"
     inkscape:zoom="0.49497475"
     inkscape:cx="111.6303"
     inkscape:cy="301.39271"
     inkscape:document-units="mm"
     inkscape:current-layer="layer1"
     inkscape:document-rotation="0"
     showgrid="false"
     inkscape:window-width="1920"
     inkscape:window-height="1017"
     inkscape:window-x="-8"
     inkscape:window-y="-8"
     inkscape:window-maximized="1" />
  <metadata
     id="metadata5">
    <rdf:RDF>
      <cc:Work
         rdf:about="">
        <dc:format>image/svg+xml</dc:format>
        <dc:type
           rdf:resource="http://purl.org/dc/dcmitype/StillImage" />
        <dc:title />
      </cc:Work>
    </rdf:RDF>
  </metadata>
  <g
     inkscape:label="Vrstva 1"
     inkscape:groupmode="layer"
     id="layer1">
    <g
       id="g887"
       transform="translate(4.3739008,4.345174)">
      <path
         id="path5622-9-6-7-8"
         style="fill:none;stroke:#ffffff;stroke-width:16.1188;stroke-linecap:round;stroke-linejoin:round;stroke-miterlimit:4;stroke-dasharray:none;stroke-opacity:1"
         d="m 23.686722,24.234862 v 71.420255 35.709733 c 0,0 -0.271658,35.70994 13.147859,35.70994 h 13.148002 26.296336 26.296011 13.148 c 13.41954,0 13.14834,-35.70994 13.14834,-35.70994 V 95.655117 24.234862 Z M 129.2323,47.198005 v 83.827575 h 19.16704 c 13.21609,0 17.32723,-7.85699 19.16736,-20.95674 V 89.111944 47.198005 Z" />
      <path
         id="path5614-4-8-7"
         style="fill:#ffae00;fill-opacity:1;stroke:none;stroke-width:0;stroke-linecap:round;stroke-linejoin:round;stroke-miterlimit:4;stroke-dasharray:none"
         d="m 23.686577,58.381342 v 37.273775 35.709743 c 0,0 -0.271661,35.70992 13.148008,35.70992 h 13.148008 26.296335 26.296012 13.14799 c 13.41954,0 13.14834,-35.70992 13.14834,-35.70992 V 95.655117 58.381342 Z" />
      <path
         id="path5616-2-6-6"
         style="fill:#ffae00;fill-opacity:1;stroke:none;stroke-width:0;stroke-linecap:round;stroke-linejoin:round;stroke-miterlimit:4;stroke-dasharray:none"
         d="m 23.686577,58.381342 v 37.273775 35.709743 c 0,0 -0.271661,35.70992 13.148008,35.70992 h 13.148008 26.296335 26.296012 13.14799 c 13.41954,0 13.14834,-35.70992 13.14834,-35.70992 V 95.655117 58.381342 Z" />
      <path
         id="path5618-3-6-1"
         style="fill:#ffae00;fill-opacity:1;stroke:none;stroke-width:0;stroke-linecap:round;stroke-linejoin:round;stroke-miterlimit:4;stroke-dasharray:none"
         d="m 23.686577,58.381342 v 37.273775 35.709743 c 0,0 -0.271661,35.70992 13.148008,35.70992 h 13.148008 26.296335 26.296012 13.14799 c 13.41954,0 13.14834,-35.70992 13.14834,-35.70992 V 95.655117 58.381342 Z" />
      <path
         id="path5620-2-8-2"
         style="fill:#ffffff;stroke:none;stroke-width:0;stroke-linecap:round;stroke-linejoin:round;stroke-miterlimit:4;stroke-dasharray:none"
         d="M 23.686577,24.23456 V 58.381342 H 128.87127 V 24.23456 Z" />
      <path
         id="path5622-9-6-7"
         style="fill:none;stroke:#000000;stroke-width:9.48164;stroke-linecap:round;stroke-linejoin:round;stroke-miterlimit:4;stroke-dasharray:none"
         d="m 23.686729,24.234864 v 71.420253 35.709743 c 0,0 -0.27166,35.70992 13.147856,35.70992 h 13.148008 26.296335 26.296012 13.14799 c 13.41954,0 13.14834,-35.70992 13.14834,-35.70992 V 95.655117 24.234864 Z M 129.2323,47.198005 v 83.827585 h 19.16704 c 13.21609,0 17.32723,-7.857 19.16736,-20.95674 V 89.111952 47.198005 Z" />
      <path
         id="path5624-4-5-7"
         style="fill:#ffe680;fill-opacity:0.543478;stroke:none;stroke-width:0;stroke-linecap:round;stroke-linejoin:round;stroke-miterlimit:4;stroke-dasharray:none"
         d="m 41.997199,66.965527 a 4.3178017,4.0521506 0 0 0 -4.314943,4.052456 4.3178017,4.0521506 0 0 0 4.317698,4.052165 4.3178017,4.0521506 0 0 0 4.317699,-4.052165 4.3178017,4.0521506 0 0 0 -4.317699,-4.052456 z m 15.589715,6.567113 a 4.3178017,4.0521506 0 0 0 -4.314942,4.052021 4.3178017,4.0521506 0 0 0 4.318134,4.052165 4.3178017,4.0521506 0 0 0 4.317697,-4.052165 4.3178017,4.0521506 0 0 0 -4.317697,-4.052021 z m 50.416296,0.255236 a 4.3178017,4.0521506 0 0 0 -4.31497,4.052021 4.3178017,4.0521506 0 0 0 4.31813,4.05218 4.3178017,4.0521506 0 0 0 4.3177,-4.05218 4.3178017,4.0521506 0 0 0 -4.3177,-4.052021 z m -24.246311,8.204106 a 4.3178017,4.0521506 0 0 0 -4.314942,4.052021 4.3178017,4.0521506 0 0 0 4.317697,4.052166 4.3178017,4.0521506 0 0 0 4.317859,-4.052166 4.3178017,4.0521506 0 0 0 -4.317859,-4.052021 z m -42.92291,8.441795 a 4.3178017,4.0521506 0 0 0 -4.314944,4.052165 4.3178017,4.0521506 0 0 0 4.318134,4.052463 4.3178017,4.0521506 0 0 0 4.317699,-4.052463 4.3178017,4.0521506 0 0 0 -4.317699,-4.052165 z m 65.133831,7.913924 a 4.3178017,4.0521506 0 0 0 -4.31507,4.052169 4.3178017,4.0521506 0 0 0 4.31828,4.05202 4.3178017,4.0521506 0 0 0 4.31767,-4.05202 4.3178017,4.0521506 0 0 0 -4.31767,-4.052169 z m -34.714017,5.202329 a 4.3178017,4.0521506 0 0 0 -4.315089,4.05216 4.3178017,4.0521506 0 0 0 4.317859,4.05204 4.3178017,4.0521506 0 0 0 4.317684,-4.05204 4.3178017,4.0521506 0 0 0 -4.317684,-4.05216 z m 7.090508,19.63028 a 4.3178017,4.0521506 0 0 0 -4.314958,4.05216 4.3178017,4.0521506 0 0 0 4.317697,4.05202 4.3178017,4.0521506 0 0 0 4.317858,-4.05202 4.3178017,4.0521506 0 0 0 -4.317858,-4.05216 z m 22.680329,0 a 4.3178017,4.0521506 0 0 0 -4.314923,4.05216 4.3178017,4.0521506 0 0 0 4.317833,4.05202 4.3178017,4.0521506 0 0 0 4.31771,-4.05202 4.3178017,4.0521506 0 0 0 -4.31771,-4.05216 z m -50.885694,1.63713 a 4.3178017,4.0521506 0 0 0 -4.314943,4.05218 4.3178017,4.0521506 0 0 0 4.317698,4.05245 4.3178017,4.0521506 0 0 0 4.3177,-4.05245 4.3178017,4.0521506 0 0 0 -4.3177,-4.05218 z m 63.098344,18.0107 a 4.3178017,4.0521506 0 0 0 -4.31497,4.05216 4.3178017,4.0521506 0 0 0 4.31772,4.05202 4.3178017,4.0521506 0 0 0 4.31785,-4.05202 4.3178017,4.0521506 0 0 0 -4.31785,-4.05216 z m -47.396527,2.72884 a 4.3178017,4.0521506 0 0 0 -4.314943,4.05203 4.3178017,4.0521506 0 0 0 4.317699,4.05216 4.3178017,4.0521506 0 0 0 4.318134,-4.05216 4.3178017,4.0521506 0 0 0 -4.318134,-4.05203 z" />
    </g>
  </g>
</svg>
