<?xml version="1.0" encoding="UTF-8" standalone="no"?>
<svg
   xmlns:dc="http://purl.org/dc/elements/1.1/"
   xmlns:cc="http://creativecommons.org/ns#"
   xmlns:rdf="http://www.w3.org/1999/02/22-rdf-syntax-ns#"
   xmlns:svg="http://www.w3.org/2000/svg"
   xmlns="http://www.w3.org/2000/svg"
   xmlns:xlink="http://www.w3.org/1999/xlink"
   xmlns:sodipodi="http://sodipodi.sourceforge.net/DTD/sodipodi-0.dtd"
   xmlns:inkscape="http://www.inkscape.org/namespaces/inkscape"
   width="200mm"
   height="200mm"
   viewBox="0 0 200 200"
   version="1.1"
   id="svg8"
   inkscape:version="1.0.1 (3bc2e813f5, 2020-09-07)"
   sodipodi:docname="wine.svg">
  <defs
     id="defs2">
    <radialGradient
       inkscape:collect="always"
       xlink:href="#linearGradient896"
       id="radialGradient1083"
       gradientUnits="userSpaceOnUse"
       gradientTransform="matrix(0.21989463,-0.2145759,0.23050456,0.2249292,41.467295,74.630766)"
       cx="111.125"
       cy="141.72432"
       fx="111.125"
       fy="141.72432"
       r="102.88244"
       spreadMethod="pad" />
    <linearGradient
       inkscape:collect="always"
       id="linearGradient896">
      <stop
         style="stop-color:#d40000;stop-opacity:1"
         offset="0"
         id="stop894" />
      <stop
         style="stop-color:#550000;stop-opacity:1"
         offset="1"
         id="stop892" />
    </linearGradient>
  </defs>
  <sodipodi:namedview
     id="base"
     pagecolor="#ffffff"
     bordercolor="#666666"
     borderopacity="1.0"
     inkscape:pageopacity="0.0"
     inkscape:pageshadow="2"
     inkscape:zoom="0.35"
     inkscape:cx="-498.88718"
     inkscape:cy="70.830981"
     inkscape:document-units="mm"
     inkscape:current-layer="g943"
     inkscape:document-rotation="0"
     showgrid="false"
     inkscape:window-width="1920"
     inkscape:window-height="1017"
     inkscape:window-x="-8"
     inkscape:window-y="-8"
     inkscape:window-maximized="1" />
  <metadata
     id="metadata5">
    <rdf:RDF>
      <cc:Work
         rdf:about="">
        <dc:format>image/svg+xml</dc:format>
        <dc:type
           rdf:resource="http://purl.org/dc/dcmitype/StillImage" />
        <dc:title />
      </cc:Work>
    </rdf:RDF>
  </metadata>
  <g
     inkscape:label="Vrstva 1"
     inkscape:groupmode="layer"
     id="layer1">
    <g
       id="g943"
       transform="translate(1.2191029,2.500188)"
       style="display:inline">
      <g
         id="g995"
         transform="matrix(1.0026469,0,0,1.0026469,72.881029,35.835989)">
        <path
           id="rect843-8"
           style="fill:#ffffff;stroke:#fcffff;stroke-width:0;stroke-linecap:round;stroke-linejoin:round;stroke-miterlimit:4;stroke-dasharray:none;stroke-opacity:0"
           d="m -4.065635,-18.287752 c 0,0 -18.677155,60.563317 0,79.240472 6.1288679,6.128868 15.56963,9.590971 25.441828,10.389407 v 0.01078 h 9.220281 v -0.03831 c 9.759601,-0.845302 19.067446,-4.297179 25.132148,-10.361893 18.677161,-18.677154 0,-79.240471 0,-79.240471 z m 4.00480782,6.015572 H 51.723276 c 0,0 16.175101,52.449916 0,68.625011 -12.205766,12.205785 -39.578349,12.205785 -51.78410318,0 -16.17511382,-16.175095 0,-68.625011 0,-68.625011 z" />
        <path
           id="rect843-1-3"
           style="opacity:1;fill:#000000;stroke:#fffffe;stroke-width:5;stroke-linejoin:round;stroke-miterlimit:4;stroke-dasharray:none;stroke-opacity:1;paint-order:stroke fill markers"
           d="m 20.957835,69.434856 c 0.2024,0.0188 0.40439,0.0379 0.6072,0.0543 v 58.619164 h -5.3e-4 c 0,0 -1.53696,5.91437 -23.83938,5.91437 -5.64891,0 -5.49527,4.76715 -5.49527,4.76715 h 67.3468 c 0,0 -0.0177,-4.76715 -5.49528,-4.76715 -24.20449,0 -23.68382,-5.91437 -23.68382,-5.91437 h -0.001 V 69.462796 c 0.0979,-0.008 0.19567,-0.0189 0.29352,-0.0279 z" />
        <g
           id="g948"
           style="stroke-width:0;stroke-miterlimit:4;stroke-dasharray:none"
           transform="translate(-72.949405,-36.285714)">
          <path
             id="path850-8"
             style="fill:url(#radialGradient1083);fill-opacity:1;fill-rule:nonzero;stroke-width:0;stroke-linecap:round;stroke-linejoin:round;stroke-miterlimit:4;stroke-dasharray:none"
             d="m 66.219749,64.039007 c -0.580875,11.410562 0.825872,22.519132 6.936114,28.481581 11.980892,11.691102 38.849757,11.691102 50.830667,0 6.11025,-5.962449 7.51697,-17.071019 6.93611,-28.481581 z" />
          <path
             id="rect843"
             style="fill:#000000;stroke:#fcffff;stroke-width:0;stroke-linecap:round;stroke-linejoin:round;stroke-miterlimit:4;stroke-dasharray:none;stroke-opacity:0"
             d="m 70.144271,19.924054 c 0,0 -17.889623,58.009691 0,75.899314 5.870441,5.870442 14.913287,9.186662 24.369219,9.951432 v 58.61923 h -0.001 c 0,0 -1.536643,5.91453 -23.839052,5.91453 -5.648907,0 -5.495114,4.76701 -5.495114,4.76701 h 67.346456 c 0,0 -0.0175,-4.76701 -5.49511,-4.76701 -24.2045,0 -23.68371,-5.91453 -23.68371,-5.91453 h -0.001 v -58.64528 c 9.34808,-0.80966 18.26358,-4.11639 24.07256,-9.925382 17.88963,-17.889623 0,-75.899314 0,-75.899314 z m 3.835955,5.762202 h 49.600844 c 0,0 15.49307,50.238322 0,65.731398 -11.6911,11.691106 -37.909751,11.691106 -49.600844,0 -15.493076,-15.493076 0,-65.731398 0,-65.731398 z" />
          <path
             id="rect852"
             style="opacity:0.12;fill:#00ffff;fill-opacity:1;stroke-width:0;stroke-linecap:round;stroke-miterlimit:4;stroke-dasharray:none;paint-order:markers fill stroke"
             d="m 73.980467,25.686249 c 0,0 -15.493077,50.23832 0,65.731397 11.691099,11.691094 37.909743,11.691094 49.600843,0 15.49308,-15.493077 0,-65.731397 0,-65.731397 z" />
        </g>
      </g>
    </g>
  </g>
</svg>
